<svg xmlns="http://www.w3.org/2000/svg" viewBox="0 0 744 133.58"><defs><style>.cls-1{fill:#d02128;}.cls-2{fill:#1e0406;}</style></defs><title>Artboard 10</title><g id="Layer_2" data-name="Layer 2"><path class="cls-1" d="M23.08,112.68V45.94h12.5v2.54q6.11-3.67,10.72-3.67,9.48,0,14,5.69t4.51,19.31q0,13.64-5,18.94T43.48,94.07a42.54,42.54,0,0,1-6.68-.57l-1.13-.19v19.37ZM43.85,56.09A19.09,19.09,0,0,0,36.8,57.5L35.67,58V82.6a55.3,55.3,0,0,0,6.87.56Q48,83.16,50,80t2-10.91Q52,56.08,43.85,56.09Z"/><path class="cls-1" d="M110.21,60.6V80.15A7.44,7.44,0,0,0,111,83.3a3.46,3.46,0,0,0,2.35,1.27l-.38,9.5a35.52,35.52,0,0,1-7.66-.66,17.36,17.36,0,0,1-5.78-2.63,31.34,31.34,0,0,1-13.82,3.29q-14.57,0-14.57-15.42,0-7.52,4-10.67t12.41-3.71l10.06-.75V60.6q0-2.91-1.32-4a6.65,6.65,0,0,0-4.23-1.08l-17.67.75L74,47.54a73,73,0,0,1,19.12-2.73q9.07,0,13.07,3.76T110.21,60.6ZM89.07,73c-3.52.31-5.27,2.19-5.27,5.64s1.54,5.17,4.61,5.17a30.53,30.53,0,0,0,7.8-1.13l1.41-.37V72.26Z"/><path class="cls-1" d="M134.84,92.94H122.25v-47h12.5v2.63q6.39-3.76,11.75-3.76,9.39,0,13,5.55T163,67.46V92.94H150.45V67.84q0-6-1.41-8.88t-5.64-2.87A21.27,21.27,0,0,0,136,57.41l-1.13.37Z"/><path class="cls-1" d="M210.23,60.6V80.15A7.46,7.46,0,0,0,211,83.3a3.49,3.49,0,0,0,2.35,1.27l-.37,9.5a35.62,35.62,0,0,1-7.67-.66,17.45,17.45,0,0,1-5.78-2.63,31.29,31.29,0,0,1-13.81,3.29q-14.58,0-14.58-15.42,0-7.52,4-10.67t12.41-3.71l10-.75V60.6c0-1.94-.44-3.27-1.31-4a6.67,6.67,0,0,0-4.23-1.08l-17.67.75L174,47.54a73,73,0,0,1,19.13-2.73q9.06,0,13.06,3.76T210.23,60.6ZM189.08,73q-5.27.46-5.26,5.64t4.6,5.17a30.53,30.53,0,0,0,7.8-1.13l1.41-.37V72.26Z"/><path class="cls-1" d="M239.84,44.81a67.33,67.33,0,0,1,12.5,1.5l2.54.57-.38,10q-7.42-.75-11-.75c-4.32,0-7.19.93-8.6,2.77s-2.11,5.35-2.11,10.48.7,8.67,2.11,10.58,4.31,2.87,8.7,2.87L254.5,82l.38,10.06a86.44,86.44,0,0,1-15.32,2q-10.44,0-15-5.88T220,69.34q0-13,4.7-18.75T239.84,44.81Z"/><path class="cls-1" d="M276.45,81.05A9.39,9.39,0,0,0,282.8,83q8.73,0,15.6-.56l2.63-.28.19,9.3a83.17,83.17,0,0,1-19.55,2.64q-10.62,0-15.42-5.64T261.46,70.1q0-25.29,20.77-25.29,20.49,0,20.49,21.24l-.94,8.75H274.15Q274.24,79.12,276.45,81.05Zm13.87-15.84q0-5.64-1.79-7.85c-1.19-1.47-3.28-2.21-6.25-2.21s-5.08.77-6.3,2.3-1.86,4.12-1.93,7.76Z"/><path class="cls-1" d="M347.75,60.6V80.15a7.46,7.46,0,0,0,.75,3.15,3.49,3.49,0,0,0,2.35,1.27l-.37,9.5a35.56,35.56,0,0,1-7.67-.66A17.36,17.36,0,0,1,337,90.78a31.3,31.3,0,0,1-13.82,3.29q-14.56,0-14.56-15.42,0-7.52,4-10.67t12.41-3.71l10-.75V60.6c0-1.94-.44-3.27-1.31-4a6.67,6.67,0,0,0-4.23-1.08l-17.67.75-.38-8.74a73,73,0,0,1,19.13-2.73q9.07,0,13.06,3.76T347.75,60.6ZM326.6,73q-5.27.46-5.26,5.64t4.6,5.17a30.53,30.53,0,0,0,7.8-1.13l1.41-.37V72.26Z"/><path class="cls-2" d="M380.46,92.94v-47H393v5a47.9,47.9,0,0,1,15-6.11V57.5q-7.62,1.61-13.06,3.29l-1.89.66V92.94Z"/><path class="cls-2" d="M428.07,81.05A9.39,9.39,0,0,0,434.42,83q8.73,0,15.6-.56l2.63-.28.19,9.3a83.24,83.24,0,0,1-19.55,2.64q-10.64,0-15.42-5.64T413.08,70.1q0-25.29,20.77-25.29,20.49,0,20.49,21.24l-.94,8.75H425.77Q425.86,79.12,428.07,81.05Zm13.86-15.84q0-5.64-1.78-7.85c-1.19-1.47-3.28-2.21-6.25-2.21s-5.08.77-6.3,2.3-1.87,4.12-1.93,7.76Z"/><path class="cls-2" d="M497.11,57.69a150.66,150.66,0,0,0-16.31-1.51c-3.1,0-5.11.29-6,.85a2.92,2.92,0,0,0-1.37,2.68,2.56,2.56,0,0,0,1.84,2.54,71.47,71.47,0,0,0,9.4,2.07q7.56,1.35,10.76,4.46t3.2,10.06q0,15.22-18.9,15.23a82,82,0,0,1-15-1.7l-3-.56.38-10.53a151,151,0,0,0,16.21,1.51q4.56,0,6.21-.9a2.88,2.88,0,0,0,1.64-2.68,2.78,2.78,0,0,0-1.73-2.63c-1.17-.56-4.17-1.25-9-2.07s-8.47-2.19-10.86-4.13S460.92,65,460.92,60s1.69-8.74,5.08-11.28,7.74-3.81,13.06-3.81a87.93,87.93,0,0,1,15.14,1.79l3.1.56Z"/><path class="cls-2" d="M520.38,81.05A9.37,9.37,0,0,0,526.72,83q8.74,0,15.6-.56l2.64-.28.18,9.3a83.1,83.1,0,0,1-19.55,2.64q-10.62,0-15.41-5.64t-4.8-18.33q0-25.29,20.78-25.29,20.49,0,20.49,21.24l-.94,8.75H518.07Q518.16,79.12,520.38,81.05Zm13.86-15.84q0-5.64-1.79-7.85t-6.25-2.21q-4.46,0-6.29,2.3C518.68,59,518,61.57,518,65.21Z"/><path class="cls-2" d="M591.67,60.6V80.15a7.44,7.44,0,0,0,.76,3.15,3.44,3.44,0,0,0,2.35,1.27l-.38,9.5a35.46,35.46,0,0,1-7.66-.66A17.36,17.36,0,0,1,581,90.78a31.34,31.34,0,0,1-13.82,3.29q-14.57,0-14.57-15.42,0-7.52,4-10.67T569,64.27l10.06-.75V60.6q0-2.91-1.32-4a6.67,6.67,0,0,0-4.23-1.08l-17.67.75-.38-8.74a73.08,73.08,0,0,1,19.13-2.73q9.07,0,13.07,3.76T591.67,60.6ZM570.52,73q-5.26.46-5.26,5.64c0,3.45,1.53,5.17,4.61,5.17a30.53,30.53,0,0,0,7.8-1.13l1.41-.37V72.26Z"/><path class="cls-2" d="M603.71,92.94v-47h12.5v5a47.81,47.81,0,0,1,15-6.11V57.5q-7.62,1.61-13.07,3.29l-1.88.66V92.94Z"/><path class="cls-2" d="M656.25,44.81a67.24,67.24,0,0,1,12.5,1.5l2.54.57-.37,10c-5-.5-8.62-.75-11-.75-4.33,0-7.19.93-8.6,2.77s-2.12,5.35-2.12,10.48.71,8.67,2.12,10.58,4.3,2.87,8.69,2.87L670.92,82l.37,10.06a86.33,86.33,0,0,1-15.32,2q-10.44,0-15-5.88t-4.56-18.85q0-13,4.7-18.75T656.25,44.81Z"/><path class="cls-2" d="M693.19,92.94H680.6V27.14h12.59v21q6.49-3.37,11.66-3.38,9.39,0,13,5.55t3.57,17.1V92.94H708.8V67.75q0-5.93-1.41-8.79t-5.64-2.87a24.82,24.82,0,0,0-7.33,1.13l-1.23.37Z"/></g></svg>