<svg xmlns="http://www.w3.org/2000/svg" viewBox="0 0 744 133.58"><defs><style>.cls-1{fill:#d02128;}.cls-2{fill:#544e4f;}</style></defs><title>Artboard 9</title><g id="Layer_2" data-name="Layer 2"><path class="cls-1" d="M55.93,74.28H45.85V92.1H33.43V30.9h22.5q21.78,0,21.78,21.24,0,10.72-5.54,16.43T55.93,74.28ZM45.85,63.66h10q9.27,0,9.28-11.52c0-3.78-.76-6.49-2.25-8.14s-3.85-2.48-7-2.48h-10Z"/><path class="cls-1" d="M119.38,61.14V79.86a7,7,0,0,0,.72,3,3.31,3.31,0,0,0,2.25,1.21L122,93.18a34.14,34.14,0,0,1-7.34-.63A16.39,16.39,0,0,1,109.12,90a30,30,0,0,1-13.24,3.15q-13.95,0-13.94-14.76,0-7.2,3.86-10.21t11.89-3.56l9.63-.72V61.14c0-1.85-.43-3.13-1.27-3.82a6.35,6.35,0,0,0-4-1L85.08,57l-.36-8.37A70.51,70.51,0,0,1,103,46c5.79,0,10,1.21,12.51,3.6S119.38,55.86,119.38,61.14ZM99.12,73c-3.36.3-5,2.11-5,5.4s1.47,5,4.42,5A29,29,0,0,0,106,82.29l1.36-.36V72.3Z"/><path class="cls-1" d="M143,92.1H130.89v-45h12v2.52c4.08-2.39,7.83-3.6,11.25-3.6q9,0,12.42,5.31T170,67.71V92.1H157.89v-24q0-5.76-1.35-8.5t-5.4-2.75A20.4,20.4,0,0,0,144,58.08l-1.08.36Z"/><path class="cls-1" d="M215.13,61.14V79.86a7.2,7.2,0,0,0,.72,3,3.31,3.31,0,0,0,2.25,1.21l-.36,9.09a34,34,0,0,1-7.33-.63A16.52,16.52,0,0,1,204.87,90a30,30,0,0,1-13.23,3.15q-13.95,0-13.95-14.76,0-7.2,3.87-10.21t11.88-3.56l9.63-.72V61.14c0-1.85-.42-3.13-1.26-3.82a6.37,6.37,0,0,0-4.05-1L180.84,57l-.36-8.37A70.51,70.51,0,0,1,198.8,46c5.79,0,10,1.21,12.51,3.6S215.13,55.86,215.13,61.14ZM194.88,73c-3.36.3-5,2.11-5,5.4s1.47,5,4.41,5a29.15,29.15,0,0,0,7.47-1.08l1.35-.36V72.3Z"/><path class="cls-1" d="M243.48,46a65.16,65.16,0,0,1,12,1.44l2.43.54-.36,9.54c-4.74-.47-8.25-.72-10.53-.72q-6.21,0-8.23,2.66t-2,10q0,7.39,2,10.13t8.32,2.74l10.44-.72.36,9.63a82.87,82.87,0,0,1-14.67,1.89q-10,0-14.35-5.62t-4.37-18q0-12.42,4.5-18T243.48,46Z"/><path class="cls-1" d="M278.54,80.72a9,9,0,0,0,6.07,1.84q8.37,0,14.94-.54l2.52-.27.18,8.91a79.86,79.86,0,0,1-18.72,2.52q-10.17,0-14.76-5.4t-4.59-17.55Q264.18,46,284.07,46q19.62,0,19.62,20.34l-.9,8.37H276.33Q276.42,78.87,278.54,80.72Zm13.27-15.17q0-5.4-1.71-7.51t-6-2.12q-4.28,0-6,2.21t-1.85,7.42Z"/><path class="cls-1" d="M346.8,61.14V79.86a7.2,7.2,0,0,0,.72,3,3.31,3.31,0,0,0,2.25,1.21l-.36,9.09a34,34,0,0,1-7.33-.63A16.52,16.52,0,0,1,336.54,90a30,30,0,0,1-13.23,3.15q-13.95,0-13.95-14.76,0-7.2,3.87-10.21t11.88-3.56l9.63-.72V61.14c0-1.85-.42-3.13-1.26-3.82a6.37,6.37,0,0,0-4.05-1L312.51,57l-.36-8.37A70.51,70.51,0,0,1,330.47,46c5.79,0,10,1.21,12.51,3.6S346.8,55.86,346.8,61.14ZM326.55,73c-3.36.3-5,2.11-5,5.4s1.47,5,4.41,5a29.15,29.15,0,0,0,7.47-1.08l1.35-.36V72.3Z"/><path class="cls-2" d="M384.06,66V92.1h-3.24v-63h22.59q9.54,0,14.13,4.32t4.59,13.68q0,15.93-13.05,18.45L423.3,92.1h-3.69l-14-26.1Zm34.65-18.9q0-7.83-3.69-11.38t-11.61-3.56H384.06V62.94h19.35Q418.71,62.94,418.71,47.1Z"/><path class="cls-2" d="M462.81,89.4l2.7-.18.18,2.88q-10.08.81-16.65.81-9.54-.09-13.23-5.8T432.12,69.6q0-23.29,18.18-23.31,8.55,0,12.82,5.13t4.28,16.47v3H435.45q0,9.72,3.06,14.45T448.68,90Q455.79,90,462.81,89.4ZM435.45,68h28.62q0-10.17-3.29-14.49T450.3,49.17Q435.45,49.17,435.45,68Z"/><path class="cls-2" d="M492.06,49.17q-12.06,0-12.06,9c0,2.83.84,4.82,2.52,6s5.4,2.2,11.16,3.1,9.78,2.1,12.06,3.6,3.42,4.52,3.42,9-1.44,7.83-4.32,9.9-7.14,3.1-12.78,3.1a92.14,92.14,0,0,1-12.24-1.08l-2.61-.36.36-3A103.71,103.71,0,0,0,493.05,90a17,17,0,0,0,9.27-2.25c2.34-1.49,3.51-4,3.51-7.65s-.91-6-2.75-7.11-5.58-2.14-11.25-3S482.22,68,480,66.5s-3.33-3.94-3.33-7.43.81-6.16,2.43-8a11.73,11.73,0,0,1,5.67-3.78,24,24,0,0,1,6.75-1,89.43,89.43,0,0,1,13.68,1l2.34.36-.18,3A102,102,0,0,0,492.06,49.17Z"/><path class="cls-2" d="M549.48,89.4l2.7-.18.18,2.88q-10.08.81-16.65.81-9.54-.09-13.23-5.8T518.79,69.6q0-23.29,18.18-23.31,8.55,0,12.82,5.13t4.28,16.47v3h-32q0,9.72,3.06,14.45T535.35,90Q542.46,90,549.48,89.4ZM522.12,68h28.62q0-10.17-3.28-14.49T537,49.17Q522.12,49.17,522.12,68Z"/><path class="cls-2" d="M595.74,60.33V86.25q.36,3.24,6.75,3.78l-.18,2.79q-6.57,0-9.27-3.78a46.53,46.53,0,0,1-18.18,3.87c-3.72,0-6.61-1.1-8.69-3.33s-3.1-5.38-3.1-9.49,1-7.25,3-9.41,5.13-3.45,9.45-3.87l17.1-1.8V60.33c0-3.83-.83-6.62-2.47-8.37s-4.16-2.61-7.52-2.61a120.81,120.81,0,0,0-14.22,1.17l-2.79.36-.27-3a111.38,111.38,0,0,1,17.28-1.62Q595.74,46.29,595.74,60.33ZM568.56,72.57Q566.4,75,566.4,79.86c0,3.24.73,5.75,2.21,7.52A7.54,7.54,0,0,0,574.77,90a40,40,0,0,0,8.37-.94,57,57,0,0,0,6.93-1.85l2.52-.9V67.89L575.85,69.6Q570.72,70.14,568.56,72.57Z"/><path class="cls-2" d="M610.41,92.1v-45h3.15v7a40.29,40.29,0,0,1,8.06-4.63,41.38,41.38,0,0,1,9.76-3.29v3.24a44.58,44.58,0,0,0-8.42,2.7,50.8,50.8,0,0,0-6.88,3.42l-2.52,1.53v35Z"/><path class="cls-2" d="M655.14,49.17q-8.55,0-11.84,4.32T640,69.29q0,11.47,3,16.11T655.14,90l10.8-.81.18,2.88q-7.56.81-11,.81-11,0-14.72-5.17t-3.73-18.36q0-13.18,4.14-18.14t14.31-5l10.8.9-.18,2.88A97.74,97.74,0,0,0,655.14,49.17Z"/><path class="cls-2" d="M680.16,92.1H677V26.4h3.15V49.8a39.81,39.81,0,0,1,16.29-3.51q8.37,0,11.25,4.55t2.88,17.86V92.1h-3.15V68.88q0-11.88-2.16-15.79t-9.45-3.92a34.17,34.17,0,0,0-7.52.9,37,37,0,0,0-6,1.8l-2.16.9Z"/></g></svg>